<svg width="16" height="16" viewBox="0 0 16 16" fill="none" xmlns="http://www.w3.org/2000/svg">
<path d="M6.09578 13.8549V11.8103C6.09577 11.2922 6.51707 10.8713 7.03892 10.868H8.95503C9.47921 10.868 9.90414 11.2899 9.90414 11.8103V11.8103V13.849C9.90413 14.2983 10.2693 14.6636 10.7219 14.6668H12.0292C12.6397 14.6684 13.2258 14.4287 13.6581 14.0006C14.0903 13.5726 14.3333 12.9913 14.3333 12.3852V6.57739C14.3333 6.08775 14.1147 5.6233 13.7364 5.30916L9.29528 1.78301C8.51897 1.16624 7.41021 1.18617 6.65689 1.83042L2.3113 5.30916C1.91512 5.61404 1.67833 6.07987 1.66663 6.57739V12.3793C1.66663 13.6426 2.69821 14.6668 3.97074 14.6668H5.24815C5.46607 14.6684 5.67562 14.5835 5.83027 14.4311C5.98493 14.2787 6.07191 14.0713 6.0719 13.8549H6.09578Z" fill="#5570F1"/>
</svg>
