<svg width="20" height="21" viewBox="0 0 20 21" fill="none" xmlns="http://www.w3.org/2000/svg">
<path d="M2.64172 7.05566L10 11.314L17.3084 7.08064" stroke="#292D32" stroke-width="1.5" stroke-linecap="round" stroke-linejoin="round"/>
<path d="M10 18.864V11.3057" stroke="#292D32" stroke-width="1.5" stroke-linecap="round" stroke-linejoin="round"/>
<path d="M18.0083 11.5475V8.49746C18.0083 7.34746 17.1834 5.94748 16.175 5.38915L11.725 2.92246C10.775 2.38913 9.22501 2.38913 8.27501 2.92246L3.82502 5.38915C2.81668 5.94748 1.9917 7.34746 1.9917 8.49746V13.2142C1.9917 14.3642 2.81668 15.7641 3.82502 16.3225L8.27501 18.7892C8.75001 19.0558 9.37502 19.1891 10 19.1891C10.625 19.1891 11.25 19.0558 11.725 18.7892" stroke="#292D32" stroke-width="1.5" stroke-linecap="round" stroke-linejoin="round"/>
<path d="M16.0001 18.6893C17.4728 18.6893 18.6667 17.4954 18.6667 16.0226C18.6667 14.5499 17.4728 13.356 16.0001 13.356C14.5273 13.356 13.3334 14.5499 13.3334 16.0226C13.3334 17.4954 14.5273 18.6893 16.0001 18.6893Z" stroke="#292D32" stroke-width="1.5" stroke-linecap="round" stroke-linejoin="round"/>
<path d="M19.1667 19.1893L18.3334 18.356" stroke="#292D32" stroke-width="1.5" stroke-linecap="round" stroke-linejoin="round"/>
</svg>
